<svg width="367" height="42" viewBox="0 0 367 42" fill="none" xmlns="http://www.w3.org/2000/svg">
<path d="M0.84375 37.4844C0.6875 37.0469 0.640625 36.6094 0.703125 36.1719C0.796875 35.7031 0.9375 35.2344 1.125 34.7656C1.3125 34.2969 1.51562 33.8438 1.73438 33.4062C1.98438 32.9688 2.1875 32.5469 2.34375 32.1406C2.5 31.8281 2.75 31.2812 3.09375 30.5C3.46875 29.6875 3.84375 28.8438 4.21875 27.9688C4.625 27.0625 5 26.2031 5.34375 25.3906C5.6875 24.5781 5.9375 24.0156 6.09375 23.7031C6.28125 23.3281 6.25 23 6 22.7188C5.78125 22.4062 5.53125 22.1094 5.25 21.8281C5 21.5469 4.79688 21.2656 4.64062 20.9844C4.51562 20.7031 4.64062 20.375 5.01562 20C5.23438 19.7812 5.51562 19.6406 5.85938 19.5781C6.20312 19.5156 6.5625 19.4688 6.9375 19.4375C7.3125 19.375 7.65625 19.2812 7.96875 19.1562C8.28125 19.0312 8.53125 18.7812 8.71875 18.4062L14.0625 8.28125C13.8438 7.4375 13.7656 6.73438 13.8281 6.17188C13.9219 5.60938 14.1094 5.125 14.3906 4.71875C14.7031 4.3125 15.0938 3.9375 15.5625 3.59375C16.0625 3.25 16.625 2.85938 17.25 2.42188C20.4688 1.92188 23.625 1.5 26.7188 1.15625C29.8438 0.8125 33.0469 0.71875 36.3281 0.875C36.5156 0.90625 36.75 1.04687 37.0312 1.29688C37.3125 1.51562 37.5469 1.78125 37.7344 2.09375C37.9219 2.375 38 2.65625 37.9688 2.9375C37.9688 3.21875 37.7656 3.40625 37.3594 3.5C37.3281 3.5 37.2344 3.48437 37.0781 3.45312C36.9219 3.39062 36.75 3.32813 36.5625 3.26562C36.375 3.20312 36.2031 3.14063 36.0469 3.07812C35.8906 3.01562 35.7969 2.98438 35.7656 2.98438C33.2656 2.98438 31.0938 3.01562 29.25 3.07812C27.4062 3.14063 25.7969 3.28125 24.4219 3.5C23.0781 3.6875 21.9062 3.98438 20.9062 4.39062C19.9375 4.79687 19.0625 5.35937 18.2812 6.07812C17.5312 6.76562 16.8125 7.64063 16.125 8.70312C15.4688 9.76562 14.7812 11.0625 14.0625 12.5938C13.7188 13.25 13.4062 13.875 13.125 14.4688C12.875 15 12.6719 15.5312 12.5156 16.0625C12.3594 16.5625 12.3438 16.9844 12.4688 17.3281C14.2188 17.6406 15.9844 17.6094 17.7656 17.2344C19.5781 16.8594 21.3906 16.4062 23.2031 15.875C25.0156 15.3438 26.8281 14.875 28.6406 14.4688C30.4844 14.0312 32.3281 13.9219 34.1719 14.1406V15.2188C34.1719 15.2812 33.5938 15.4219 32.4375 15.6406C31.2812 15.8281 29.7969 16.1094 27.9844 16.4844C26.2031 16.8281 24.2344 17.2656 22.0781 17.7969C19.9531 18.2969 17.9062 18.8906 15.9375 19.5781C13.9688 20.2656 12.2344 21.0469 10.7344 21.9219C9.23438 22.7969 8.21875 23.75 7.6875 24.7812C6.6875 26.8125 5.73438 28.9062 4.82812 31.0625C3.92188 33.1875 3.09375 35.3281 2.34375 37.4844C2.15625 37.7656 1.89062 37.9375 1.54688 38C1.23438 38.0625 1 37.8906 0.84375 37.4844ZM37.5469 37.4844C36.6406 36.8281 36.0469 36 35.7656 35C35.5156 34 35.4844 32.9219 35.6719 31.7656C35.8594 30.5781 36.1875 29.3594 36.6562 28.1094C37.1562 26.8594 37.6875 25.6562 38.25 24.5C38.8438 23.3438 39.4062 22.2812 39.9375 21.3125C40.5 20.3438 40.9375 19.5469 41.25 18.9219C41.3438 18.7344 41.5625 18.2812 41.9062 17.5625C42.2812 16.8438 42.6719 16.0625 43.0781 15.2188C43.4844 14.375 43.8594 13.5938 44.2031 12.875C44.5781 12.125 44.8125 11.6562 44.9062 11.4688C45 11.3125 45.125 11.0156 45.2812 10.5781C45.4688 10.1094 45.6719 9.60938 45.8906 9.07812C46.1094 8.54687 46.3438 8.04688 46.5938 7.57812C46.875 7.07813 47.1562 6.71875 47.4375 6.5C47.75 6.28125 48.0469 6.25 48.3281 6.40625C48.6406 6.5625 48.9375 7.03125 49.2188 7.8125C49.0938 8.125 48.7812 8.75 48.2812 9.6875C47.8125 10.625 47.25 11.75 46.5938 13.0625C45.9375 14.375 45.2031 15.8281 44.3906 17.4219C43.6094 19.0156 42.8438 20.625 42.0938 22.25C41.3438 23.875 40.6406 25.4688 39.9844 27.0312C39.3281 28.5625 38.7812 29.9688 38.3438 31.25C37.9375 32.5 37.6875 33.5469 37.5938 34.3906C37.5312 35.2031 37.6875 35.7031 38.0625 35.8906C38.5 36.1094 39.0625 36.2031 39.75 36.1719C40.4688 36.1094 41.2031 36.0156 41.9531 35.8906C42.7031 35.7656 43.4375 35.6406 44.1562 35.5156C44.875 35.3594 45.5 35.2969 46.0312 35.3281C46.1562 35.6094 46.0625 35.8906 45.75 36.1719C45.4375 36.4219 45 36.6562 44.4375 36.875C43.875 37.0625 43.2188 37.2344 42.4688 37.3906C41.75 37.5156 41.0469 37.6094 40.3594 37.6719C39.7031 37.7344 39.1094 37.75 38.5781 37.7188C38.0781 37.6875 37.7344 37.6094 37.5469 37.4844ZM53.9531 37.4844C52.6406 36.9531 51.8125 36.1562 51.4688 35.0938C51.1562 34.0312 51.1719 32.8594 51.5156 31.5781C51.8594 30.2656 52.4531 28.9219 53.2969 27.5469C54.1406 26.1406 55.0781 24.8594 56.1094 23.7031C57.1406 22.5469 58.1719 21.5781 59.2031 20.7969C60.2656 19.9844 61.1719 19.5312 61.9219 19.4375C63.8594 19.1875 65.375 19.3281 66.4688 19.8594C67.5938 20.3594 68.3594 21.0938 68.7656 22.0625C69.1719 23.0312 69.2812 24.1719 69.0938 25.4844C68.9062 26.7656 68.4844 28.0625 67.8281 29.375C67.2031 30.6875 66.375 31.9531 65.3438 33.1719C64.3438 34.3906 63.2188 35.4219 61.9688 36.2656C60.75 37.0781 59.4531 37.625 58.0781 37.9062C56.7031 38.1562 55.3281 38.0156 53.9531 37.4844ZM53.4375 34.8125C53.6875 35.8125 54.2188 36.375 55.0312 36.5C55.8438 36.5938 56.7812 36.3906 57.8438 35.8906C58.9375 35.3594 60.0781 34.6094 61.2656 33.6406C62.4531 32.6406 63.5312 31.5625 64.5 30.4062C65.5 29.25 66.3125 28.0938 66.9375 26.9375C67.5938 25.75 67.9062 24.7188 67.875 23.8438C67.875 22.9688 67.4531 22.3125 66.6094 21.875C65.7969 21.4062 64.4219 21.3125 62.4844 21.5938C62.0469 22 61.4844 22.5 60.7969 23.0938C60.1094 23.6562 59.3906 24.2812 58.6406 24.9688C57.9219 25.6562 57.2031 26.4062 56.4844 27.2188C55.7656 28 55.1406 28.8125 54.6094 29.6562C54.0781 30.5 53.6875 31.3594 53.4375 32.2344C53.2188 33.1094 53.2188 33.9688 53.4375 34.8125ZM71.7656 37.4844C71.7031 37.4531 71.7031 37.0938 71.7656 36.4062C71.8594 35.6875 71.9844 34.7969 72.1406 33.7344C72.2969 32.6719 72.5 31.5 72.75 30.2188C73 28.9375 73.2656 27.7188 73.5469 26.5625C73.8281 25.375 74.125 24.3438 74.4375 23.4688C74.7812 22.5625 75.1094 21.9375 75.4219 21.5938C75.6406 21.375 75.8594 21.375 76.0781 21.5938C76.2969 21.7812 76.5156 22.0312 76.7344 22.3438C76.9531 22.625 77.1719 22.8906 77.3906 23.1406C77.6094 23.3594 77.8438 23.375 78.0938 23.1875C78.9688 21.9688 79.9219 20.8125 80.9531 19.7188C82.0156 18.5938 83.1875 17.625 84.4688 16.8125C84.5938 16.7188 84.9375 16.5781 85.5 16.3906C86.0625 16.1719 86.7031 15.9688 87.4219 15.7812C88.1406 15.5625 88.875 15.3906 89.625 15.2656C90.4062 15.1094 91.0625 15.0469 91.5938 15.0781C92.1562 15.0781 92.5312 15.2188 92.7188 15.5C92.9375 15.75 92.8438 16.1875 92.4375 16.8125C90.5625 16.8438 88.8125 17.3906 87.1875 18.4531C85.5625 19.5156 84.0625 20.8281 82.6875 22.3906C81.3125 23.9531 80.0625 25.6562 78.9375 27.5C77.8125 29.3125 76.8281 31 75.9844 32.5625C75.1719 34.125 74.4844 35.4219 73.9219 36.4531C73.3906 37.4844 73 38 72.75 38C72.7188 38 72.5781 37.9375 72.3281 37.8125C72.0781 37.6562 71.8906 37.5469 71.7656 37.4844ZM93.7031 37.4844C94.9844 33.3594 96.1406 30.0938 97.1719 27.6875C98.2344 25.25 99.1094 23.5469 99.7969 22.5781C100.516 21.6094 101 21.2969 101.25 21.6406C101.5 21.9844 101.469 22.8594 101.156 24.2656C100.875 25.6719 100.25 27.5625 99.2812 29.9375C98.3438 32.2812 97.0156 34.9688 95.2969 38C95.0469 38.0938 94.75 38.1094 94.4062 38.0469C94.0625 37.9844 93.8281 37.7969 93.7031 37.4844ZM101.906 14.9375C101.844 14.7812 101.812 14.5 101.812 14.0938C101.812 13.6875 101.844 13.4375 101.906 13.3438C102.625 13.0938 103.172 13.0625 103.547 13.25C103.922 13.4375 104.156 13.7188 104.25 14.0938C104.344 14.4375 104.328 14.8125 104.203 15.2188C104.109 15.625 103.938 15.9375 103.688 16.1562C103.438 16.3438 103.141 16.375 102.797 16.25C102.484 16.0938 102.188 15.6562 101.906 14.9375ZM107.766 36.9219C107.016 36.2969 106.594 35.375 106.5 34.1562C106.438 32.9375 106.609 31.5625 107.016 30.0312C107.453 28.5 108.078 26.9062 108.891 25.25C109.734 23.5625 110.703 21.9688 111.797 20.4688C112.891 18.9375 114.078 17.5781 115.359 16.3906C116.641 15.1719 117.922 14.2812 119.203 13.7188C120.484 13.125 121.734 12.9219 122.953 13.1094C124.172 13.2656 125.281 13.9688 126.281 15.2188C126.906 16 127.281 16.7969 127.406 17.6094C127.531 18.3906 127.516 19.2031 127.359 20.0469C127.203 20.8594 126.953 21.7031 126.609 22.5781C126.266 23.4219 125.922 24.2812 125.578 25.1562C125.266 26.0312 125 26.9219 124.781 27.8281C124.594 28.7344 124.562 29.6562 124.688 30.5938C124.844 31.7812 125.375 32.4844 126.281 32.7031C127.188 32.9219 128.266 32.8594 129.516 32.5156C130.797 32.1719 132.141 31.625 133.547 30.875C134.953 30.125 136.25 29.375 137.438 28.625C138.656 27.875 139.656 27.2188 140.438 26.6562C141.25 26.0938 141.656 25.8125 141.656 25.8125C142.531 25.625 143.016 25.6875 143.109 26C143.234 26.2812 143.062 26.7188 142.594 27.3125C142.156 27.875 141.484 28.5312 140.578 29.2812C139.672 30 138.641 30.7031 137.484 31.3906C136.328 32.0781 135.094 32.7031 133.781 33.2656C132.469 33.8281 131.188 34.2188 129.938 34.4375C128.688 34.625 127.5 34.6094 126.375 34.3906C125.281 34.1406 124.375 33.5781 123.656 32.7031C123.312 32.3281 123.047 31.9531 122.859 31.5781C122.703 31.2031 122.438 30.875 122.062 30.5938C121.594 31.0312 121.031 31.6094 120.375 32.3281C119.719 33.0156 119 33.7188 118.219 34.4375C117.469 35.125 116.656 35.7812 115.781 36.4062C114.938 37.0312 114.062 37.5 113.156 37.8125C112.25 38.125 111.328 38.2344 110.391 38.1406C109.484 38.0469 108.609 37.6406 107.766 36.9219ZM108.281 35.3281C108.562 36.3281 109.188 36.7969 110.156 36.7344C111.125 36.6406 112.25 36.1562 113.531 35.2812C114.812 34.4062 116.141 33.2188 117.516 31.7188C118.891 30.1875 120.125 28.5 121.219 26.6562C122.312 24.7812 123.141 22.8125 123.703 20.75C124.297 18.6875 124.453 16.6562 124.172 14.6562C123.422 14.0625 122.484 14.0469 121.359 14.6094C120.234 15.1406 119.031 16.0312 117.75 17.2812C116.5 18.5 115.25 19.9688 114 21.6875C112.781 23.375 111.703 25.0938 110.766 26.8438C109.828 28.5625 109.109 30.1875 108.609 31.7188C108.141 33.25 108.031 34.4531 108.281 35.3281ZM156.281 37.4844C156.188 36.4531 156.266 35.4375 156.516 34.4375C156.797 33.4062 157.156 32.4062 157.594 31.4375C158.062 30.4375 158.547 29.4531 159.047 28.4844C159.578 27.4844 160.031 26.5156 160.406 25.5781C160.781 24.6094 161.047 23.6719 161.203 22.7656C161.359 21.8281 161.297 20.9062 161.016 20C160.234 19.7188 159.328 19.7812 158.297 20.1875C157.297 20.5938 156.234 21.2188 155.109 22.0625C153.984 22.875 152.812 23.8438 151.594 24.9688C150.406 26.0625 149.234 27.1875 148.078 28.3438C146.953 29.4688 145.875 30.5469 144.844 31.5781C143.812 32.6094 142.875 33.4688 142.031 34.1562C141.219 34.8125 140.531 35.2344 139.969 35.4219C139.406 35.5781 139.031 35.375 138.844 34.8125C138.812 34.7812 138.984 34.3906 139.359 33.6406C139.766 32.8594 140.25 31.8906 140.812 30.7344C141.406 29.5781 142.047 28.3281 142.734 26.9844C143.453 25.6406 144.125 24.3906 144.75 23.2344C145.375 22.0469 145.922 21.0469 146.391 20.2344C146.859 19.4219 147.156 18.9844 147.281 18.9219C147.938 19.3594 148.266 19.8438 148.266 20.375C148.297 20.875 148.219 21.4062 148.031 21.9688C147.844 22.5 147.625 23.0469 147.375 23.6094C147.156 24.1719 147.125 24.7344 147.281 25.2969C147.781 24.9531 148.469 24.4844 149.344 23.8906C150.25 23.2656 151.219 22.625 152.25 21.9688C153.312 21.3125 154.406 20.6719 155.531 20.0469C156.688 19.4219 157.766 18.9375 158.766 18.5938C159.766 18.2188 160.656 18.0156 161.438 17.9844C162.25 17.9531 162.844 18.1875 163.219 18.6875C163.594 19.1875 163.703 20.0156 163.547 21.1719C163.422 22.2969 162.938 23.8438 162.094 25.8125C162 26.0312 161.766 26.5625 161.391 27.4062C161.047 28.2188 160.656 29.1094 160.219 30.0781C159.812 31.0156 159.422 31.9062 159.047 32.75C158.703 33.5625 158.484 34.0781 158.391 34.2969C158.359 34.4219 158.312 34.6562 158.25 35C158.219 35.3125 158.172 35.6719 158.109 36.0781C158.047 36.4531 157.953 36.8281 157.828 37.2031C157.703 37.5469 157.547 37.8125 157.359 38C157.172 38.1875 156.953 38.1719 156.703 37.9531C156.453 37.7031 156.312 37.5469 156.281 37.4844ZM225.656 41.1406C225.625 41.1094 225.609 41.0156 225.609 40.8594C225.609 40.7344 225.625 40.6406 225.656 40.5781C225.688 40.5156 225.75 40.3281 225.844 40.0156C225.938 39.7031 226.047 39.375 226.172 39.0312C226.297 38.6875 226.406 38.3594 226.5 38.0469C226.594 37.7344 226.656 37.5312 226.688 37.4375C227.594 34.5312 228.391 31.9375 229.078 29.6562C229.766 27.3438 230.422 25.0938 231.047 22.9062C231.672 20.7188 232.281 18.4688 232.875 16.1562C233.5 13.8125 234.188 11.1562 234.938 8.1875V7.15625C234.031 6.84375 233.047 6.875 231.984 7.25C230.953 7.625 229.891 8.23438 228.797 9.07812C227.703 9.92188 226.594 10.9375 225.469 12.125C224.344 13.2812 223.25 14.5156 222.188 15.8281C221.125 17.1094 220.094 18.3906 219.094 19.6719C218.094 20.9219 217.172 22.0781 216.328 23.1406C215.484 24.1719 214.719 25.0312 214.031 25.7188C213.375 26.375 212.844 26.75 212.438 26.8438C212.156 26.9062 211.812 26.875 211.406 26.75C211 26.5938 210.797 26.4375 210.797 26.2812V23.0938C210.891 22.75 211.016 22.2031 211.172 21.4531C211.359 20.7031 211.547 19.8594 211.734 18.9219C211.953 17.9844 212.172 17 212.391 15.9688C212.641 14.9375 212.859 13.9531 213.047 13.0156C213.266 12.0781 213.453 11.25 213.609 10.5312C213.766 9.78125 213.891 9.21875 213.984 8.84375C214.141 8.125 214.281 7.42187 214.406 6.73438C214.562 6.04688 214.594 5.32812 214.5 4.57812C213.562 4.26563 212.562 4.51562 211.5 5.32812C210.438 6.10937 209.344 7.26563 208.219 8.79688C207.125 10.3281 206.016 12.1094 204.891 14.1406C203.766 16.1719 202.672 18.2656 201.609 20.4219C200.547 22.5781 199.516 24.7031 198.516 26.7969C197.547 28.8906 196.656 30.75 195.844 32.375C195.031 33.9688 194.312 35.25 193.688 36.2188C193.094 37.1562 192.625 37.5625 192.281 37.4375C191.844 37.3125 191.672 36.7969 191.766 35.8906C191.891 34.9844 192.203 33.8438 192.703 32.4688C193.203 31.0625 193.844 29.4844 194.625 27.7344C195.406 25.9531 196.25 24.125 197.156 22.25C198.094 20.375 199.047 18.5 200.016 16.625C200.984 14.75 201.906 13.0156 202.781 11.4219C203.656 9.82812 204.422 8.4375 205.078 7.25C205.766 6.03125 206.266 5.14062 206.578 4.57812C207.234 4.82813 207.812 4.92188 208.312 4.85938C208.812 4.76562 209.281 4.59375 209.719 4.34375C210.156 4.09375 210.578 3.79688 210.984 3.45312C211.422 3.10937 211.906 2.78125 212.438 2.46875C213.562 1.78125 214.453 1.48438 215.109 1.57812C215.766 1.67188 216.234 2.01563 216.516 2.60938C216.828 3.20312 216.984 4.01562 216.984 5.04688C216.984 6.04688 216.906 7.14062 216.75 8.32812C216.594 9.51562 216.375 10.7344 216.094 11.9844C215.844 13.2031 215.594 14.3438 215.344 15.4062C215.094 16.4375 214.875 17.3281 214.688 18.0781C214.531 18.7969 214.469 19.25 214.5 19.4375C214.75 19.5625 214.953 19.5469 215.109 19.3906C215.297 19.2344 215.453 19.0781 215.578 18.9219C215.672 18.7656 215.891 18.4688 216.234 18.0312C216.609 17.5938 217.031 17.0938 217.5 16.5312C217.969 15.9375 218.469 15.3125 219 14.6562C219.531 14 220.031 13.3906 220.5 12.8281C221 12.2344 221.422 11.7188 221.766 11.2812C222.109 10.8438 222.344 10.5469 222.469 10.3906C225.188 8.23438 227.484 6.64062 229.359 5.60938C231.266 4.54688 232.797 3.95312 233.953 3.82812C235.141 3.70313 236 3.98438 236.531 4.67188C237.062 5.35937 237.344 6.34375 237.375 7.625C237.406 8.875 237.219 10.3906 236.812 12.1719C236.406 13.9219 235.859 15.8125 235.172 17.8438C235.078 18.125 234.891 18.7188 234.609 19.625C234.359 20.5 234.047 21.5469 233.672 22.7656C233.297 23.9531 232.906 25.2188 232.5 26.5625C232.125 27.9062 231.75 29.1875 231.375 30.4062C231 31.5938 230.672 32.6406 230.391 33.5469C230.141 34.4219 229.969 35 229.875 35.2812C229.875 35.3125 229.844 35.5156 229.781 35.8906C229.719 36.2656 229.609 36.7188 229.453 37.25C229.328 37.75 229.172 38.2812 228.984 38.8438C228.797 39.4375 228.562 39.9688 228.281 40.4375C228 40.9062 227.672 41.2656 227.297 41.5156C226.953 41.7656 226.562 41.8125 226.125 41.6562C226.094 41.6562 226.016 41.5781 225.891 41.4219C225.766 41.2969 225.688 41.2031 225.656 41.1406ZM241.453 37.4844C240.141 36.9531 239.312 36.1562 238.969 35.0938C238.656 34.0312 238.672 32.8594 239.016 31.5781C239.359 30.2656 239.953 28.9219 240.797 27.5469C241.641 26.1406 242.578 24.8594 243.609 23.7031C244.641 22.5469 245.672 21.5781 246.703 20.7969C247.766 19.9844 248.672 19.5312 249.422 19.4375C251.359 19.1875 252.875 19.3281 253.969 19.8594C255.094 20.3594 255.859 21.0938 256.266 22.0625C256.672 23.0312 256.781 24.1719 256.594 25.4844C256.406 26.7656 255.984 28.0625 255.328 29.375C254.703 30.6875 253.875 31.9531 252.844 33.1719C251.844 34.3906 250.719 35.4219 249.469 36.2656C248.25 37.0781 246.953 37.625 245.578 37.9062C244.203 38.1562 242.828 38.0156 241.453 37.4844ZM240.938 34.8125C241.188 35.8125 241.719 36.375 242.531 36.5C243.344 36.5938 244.281 36.3906 245.344 35.8906C246.438 35.3594 247.578 34.6094 248.766 33.6406C249.953 32.6406 251.031 31.5625 252 30.4062C253 29.25 253.812 28.0938 254.438 26.9375C255.094 25.75 255.406 24.7188 255.375 23.8438C255.375 22.9688 254.953 22.3125 254.109 21.875C253.297 21.4062 251.922 21.3125 249.984 21.5938C249.547 22 248.984 22.5 248.297 23.0938C247.609 23.6562 246.891 24.2812 246.141 24.9688C245.422 25.6562 244.703 26.4062 243.984 27.2188C243.266 28 242.641 28.8125 242.109 29.6562C241.578 30.5 241.188 31.3594 240.938 32.2344C240.719 33.1094 240.719 33.9688 240.938 34.8125ZM276.188 37.4844C276.094 36.4531 276.172 35.4375 276.422 34.4375C276.703 33.4062 277.062 32.4062 277.5 31.4375C277.969 30.4375 278.453 29.4531 278.953 28.4844C279.484 27.4844 279.938 26.5156 280.312 25.5781C280.688 24.6094 280.953 23.6719 281.109 22.7656C281.266 21.8281 281.203 20.9062 280.922 20C280.141 19.7188 279.234 19.7812 278.203 20.1875C277.203 20.5938 276.141 21.2188 275.016 22.0625C273.891 22.875 272.719 23.8438 271.5 24.9688C270.312 26.0625 269.141 27.1875 267.984 28.3438C266.859 29.4688 265.781 30.5469 264.75 31.5781C263.719 32.6094 262.781 33.4688 261.938 34.1562C261.125 34.8125 260.438 35.2344 259.875 35.4219C259.312 35.5781 258.938 35.375 258.75 34.8125C258.719 34.7812 258.891 34.3906 259.266 33.6406C259.672 32.8594 260.156 31.8906 260.719 30.7344C261.312 29.5781 261.953 28.3281 262.641 26.9844C263.359 25.6406 264.031 24.3906 264.656 23.2344C265.281 22.0469 265.828 21.0469 266.297 20.2344C266.766 19.4219 267.062 18.9844 267.188 18.9219C267.844 19.3594 268.172 19.8438 268.172 20.375C268.203 20.875 268.125 21.4062 267.938 21.9688C267.75 22.5 267.531 23.0469 267.281 23.6094C267.062 24.1719 267.031 24.7344 267.188 25.2969C267.688 24.9531 268.375 24.4844 269.25 23.8906C270.156 23.2656 271.125 22.625 272.156 21.9688C273.219 21.3125 274.312 20.6719 275.438 20.0469C276.594 19.4219 277.672 18.9375 278.672 18.5938C279.672 18.2188 280.562 18.0156 281.344 17.9844C282.156 17.9531 282.75 18.1875 283.125 18.6875C283.5 19.1875 283.609 20.0156 283.453 21.1719C283.328 22.2969 282.844 23.8438 282 25.8125C281.906 26.0312 281.672 26.5625 281.297 27.4062C280.953 28.2188 280.562 29.1094 280.125 30.0781C279.719 31.0156 279.328 31.9062 278.953 32.75C278.609 33.5625 278.391 34.0781 278.297 34.2969C278.266 34.4219 278.219 34.6562 278.156 35C278.125 35.3125 278.078 35.6719 278.016 36.0781C277.953 36.4531 277.859 36.8281 277.734 37.2031C277.609 37.5469 277.453 37.8125 277.266 38C277.078 38.1875 276.859 38.1719 276.609 37.9531C276.359 37.7031 276.219 37.5469 276.188 37.4844ZM303.188 37.4844C303.094 36.4531 303.172 35.4375 303.422 34.4375C303.703 33.4062 304.062 32.4062 304.5 31.4375C304.969 30.4375 305.453 29.4531 305.953 28.4844C306.484 27.4844 306.938 26.5156 307.312 25.5781C307.688 24.6094 307.953 23.6719 308.109 22.7656C308.266 21.8281 308.203 20.9062 307.922 20C307.141 19.7188 306.234 19.7812 305.203 20.1875C304.203 20.5938 303.141 21.2188 302.016 22.0625C300.891 22.875 299.719 23.8438 298.5 24.9688C297.312 26.0625 296.141 27.1875 294.984 28.3438C293.859 29.4688 292.781 30.5469 291.75 31.5781C290.719 32.6094 289.781 33.4688 288.938 34.1562C288.125 34.8125 287.438 35.2344 286.875 35.4219C286.312 35.5781 285.938 35.375 285.75 34.8125C285.719 34.7812 285.891 34.3906 286.266 33.6406C286.672 32.8594 287.156 31.8906 287.719 30.7344C288.312 29.5781 288.953 28.3281 289.641 26.9844C290.359 25.6406 291.031 24.3906 291.656 23.2344C292.281 22.0469 292.828 21.0469 293.297 20.2344C293.766 19.4219 294.062 18.9844 294.188 18.9219C294.844 19.3594 295.172 19.8438 295.172 20.375C295.203 20.875 295.125 21.4062 294.938 21.9688C294.75 22.5 294.531 23.0469 294.281 23.6094C294.062 24.1719 294.031 24.7344 294.188 25.2969C294.688 24.9531 295.375 24.4844 296.25 23.8906C297.156 23.2656 298.125 22.625 299.156 21.9688C300.219 21.3125 301.312 20.6719 302.438 20.0469C303.594 19.4219 304.672 18.9375 305.672 18.5938C306.672 18.2188 307.562 18.0156 308.344 17.9844C309.156 17.9531 309.75 18.1875 310.125 18.6875C310.5 19.1875 310.609 20.0156 310.453 21.1719C310.328 22.2969 309.844 23.8438 309 25.8125C308.906 26.0312 308.672 26.5625 308.297 27.4062C307.953 28.2188 307.562 29.1094 307.125 30.0781C306.719 31.0156 306.328 31.9062 305.953 32.75C305.609 33.5625 305.391 34.0781 305.297 34.2969C305.266 34.4219 305.219 34.6562 305.156 35C305.125 35.3125 305.078 35.6719 305.016 36.0781C304.953 36.4531 304.859 36.8281 304.734 37.2031C304.609 37.5469 304.453 37.8125 304.266 38C304.078 38.1875 303.859 38.1719 303.609 37.9531C303.359 37.7031 303.219 37.5469 303.188 37.4844ZM312.422 37.4844C313.703 33.3594 314.859 30.0938 315.891 27.6875C316.953 25.25 317.828 23.5469 318.516 22.5781C319.234 21.6094 319.719 21.2969 319.969 21.6406C320.219 21.9844 320.188 22.8594 319.875 24.2656C319.594 25.6719 318.969 27.5625 318 29.9375C317.062 32.2812 315.734 34.9688 314.016 38C313.766 38.0938 313.469 38.1094 313.125 38.0469C312.781 37.9844 312.547 37.7969 312.422 37.4844ZM320.625 14.9375C320.562 14.7812 320.531 14.5 320.531 14.0938C320.531 13.6875 320.562 13.4375 320.625 13.3438C321.344 13.0938 321.891 13.0625 322.266 13.25C322.641 13.4375 322.875 13.7188 322.969 14.0938C323.062 14.4375 323.047 14.8125 322.922 15.2188C322.828 15.625 322.656 15.9375 322.406 16.1562C322.156 16.3438 321.859 16.375 321.516 16.25C321.203 16.0938 320.906 15.6562 320.625 14.9375ZM327.797 37.4844C326.859 37.1719 326.141 36.7031 325.641 36.0781C325.172 35.4219 324.859 34.7031 324.703 33.9219C324.547 33.1406 324.516 32.3281 324.609 31.4844C324.734 30.6094 324.922 29.7812 325.172 29C326.109 28 327.156 26.8594 328.312 25.5781C329.5 24.2656 330.75 22.9844 332.062 21.7344C333.375 20.4844 334.734 19.3281 336.141 18.2656C337.578 17.1719 339.031 16.3438 340.5 15.7812C341 15.5625 341.391 15.5781 341.672 15.8281C341.984 16.0469 342.203 16.4062 342.328 16.9062C342.453 17.4062 342.5 17.9844 342.469 18.6406C342.469 19.2969 342.422 19.9375 342.328 20.5625C342.234 21.1875 342.109 21.75 341.953 22.25C341.797 22.75 341.641 23.0938 341.484 23.2812C341.109 23.7188 340.375 24.2344 339.281 24.8281C338.219 25.4219 337.031 26.0781 335.719 26.7969C334.406 27.4844 333.094 28.2031 331.781 28.9531C330.469 29.7031 329.391 30.4531 328.547 31.2031C327.703 31.9219 327.203 32.6406 327.047 33.3594C326.891 34.0781 327.328 34.7344 328.359 35.3281C329.422 35.4531 330.703 35.4062 332.203 35.1875C333.734 34.9375 335.281 34.625 336.844 34.25C338.438 33.8438 339.969 33.4375 341.438 33.0312C342.906 32.5938 344.109 32.25 345.047 32L345.609 32.5156C344.922 33.4219 343.797 34.25 342.234 35C340.672 35.75 338.984 36.375 337.172 36.875C335.359 37.3438 333.594 37.6562 331.875 37.8125C330.156 37.9375 328.797 37.8281 327.797 37.4844ZM339 19.5781C338.969 19.5469 338.734 19.6875 338.297 20C337.859 20.2812 337.312 20.6719 336.656 21.1719C336.031 21.6406 335.344 22.1719 334.594 22.7656C333.875 23.3281 333.203 23.8594 332.578 24.3594C331.984 24.8594 331.484 25.2969 331.078 25.6719C330.672 26.0156 330.5 26.1875 330.562 26.1875C331.062 26.2812 331.703 26.2188 332.484 26C333.297 25.75 334.125 25.4062 334.969 24.9688C335.844 24.5312 336.672 24.0469 337.453 23.5156C338.234 22.9531 338.844 22.4062 339.281 21.875C339.75 21.3438 339.984 20.875 339.984 20.4688C340.016 20.0625 339.688 19.7656 339 19.5781ZM345.562 37.4844C345.5 37.4531 345.5 37.0938 345.562 36.4062C345.656 35.6875 345.781 34.7969 345.938 33.7344C346.094 32.6719 346.297 31.5 346.547 30.2188C346.797 28.9375 347.062 27.7188 347.344 26.5625C347.625 25.375 347.922 24.3438 348.234 23.4688C348.578 22.5625 348.906 21.9375 349.219 21.5938C349.438 21.375 349.656 21.375 349.875 21.5938C350.094 21.7812 350.312 22.0312 350.531 22.3438C350.75 22.625 350.969 22.8906 351.188 23.1406C351.406 23.3594 351.641 23.375 351.891 23.1875C352.766 21.9688 353.719 20.8125 354.75 19.7188C355.812 18.5938 356.984 17.625 358.266 16.8125C358.391 16.7188 358.734 16.5781 359.297 16.3906C359.859 16.1719 360.5 15.9688 361.219 15.7812C361.938 15.5625 362.672 15.3906 363.422 15.2656C364.203 15.1094 364.859 15.0469 365.391 15.0781C365.953 15.0781 366.328 15.2188 366.516 15.5C366.734 15.75 366.641 16.1875 366.234 16.8125C364.359 16.8438 362.609 17.3906 360.984 18.4531C359.359 19.5156 357.859 20.8281 356.484 22.3906C355.109 23.9531 353.859 25.6562 352.734 27.5C351.609 29.3125 350.625 31 349.781 32.5625C348.969 34.125 348.281 35.4219 347.719 36.4531C347.188 37.4844 346.797 38 346.547 38C346.516 38 346.375 37.9375 346.125 37.8125C345.875 37.6562 345.688 37.5469 345.562 37.4844Z" fill="#D5D2E4"/>
</svg>
